<svg xmlns="http://www.w3.org/2000/svg" version="1.1" xmlns:xlink="http://www.w3.org/1999/xlink" xmlns:svgjs="http://svgjs.dev/svgjs" width="1000" height="229" viewBox="0 0 1000 229"><g transform="matrix(1,0,0,1,-0.6060519714505403,0.5996016366326273)"><svg viewBox="0 0 396 91" data-background-color="#ffffff" preserveAspectRatio="xMidYMid meet" height="229" width="1000" xmlns="http://www.w3.org/2000/svg" xmlns:xlink="http://www.w3.org/1999/xlink"><defs></defs><g id="tight-bounds" transform="matrix(1,0,0,1,0.24000322553212072,-0.23826964599811618)"><svg viewBox="0 0 395.52 91.47653929199623" height="91.47653929199623" width="395.52"><g><svg viewBox="0 0 658.7506018063794 152.35696124031006" height="91.47653929199623" width="395.52"><g><rect width="6.374843556117829" height="152.35696124031006" x="240.1676861138275" y="0" fill="#60935d" opacity="1" stroke-width="0" stroke="transparent" fill-opacity="1" class="rect-o-0" data-fill-palette-color="primary" rx="1%" id="o-0" data-palette-color="#60935d"></rect></g><g transform="matrix(1,0,0,1,263.23060180637947,0.37899741602066683)"><svg viewBox="0 0 395.52 151.59896640826872" height="151.59896640826872" width="395.52"><g><svg viewBox="0 0 395.52 151.59896640826872" height="151.59896640826872" width="395.52"><g><svg viewBox="0 0 395.52 151.59896640826872" height="151.59896640826872" width="395.52"><g transform="matrix(1,0,0,1,0,0)"><svg width="395.52" viewBox="1.6999998092651367 -40.95000457763672 233.75 86.00000762939453" height="151.59896640826872" data-palette-color="#60935d"><svg></svg><svg></svg><g class="undefined-text-0" data-fill-palette-color="primary" id="text-0"><path d="M5.6 0h-2.35l1.2-40.5h2.7l8.55 36.55 8.7-36.55h2.8l1.15 40.5h-2.35l-1-33.95-8.25 33.95h-2l-8.15-33.9zM35.9 0h-2.7l8.5-40.5h3.15l8.55 40.5h-2.75l-2.1-11.2h-10.5zM43.3-37.2l-4.85 24h9.75zM73.7 0h-14.95v-40.5h2.7v38.35h12.25zM86.45 0.55v0c-2.633 0-4.673-0.527-6.12-1.58-1.453-1.047-2.463-2.48-3.03-4.3-0.567-1.813-0.85-3.87-0.85-6.17v0-17.7c0-2.3 0.3-4.333 0.9-6.1 0.6-1.767 1.627-3.15 3.08-4.15 1.447-1 3.453-1.5 6.02-1.5v0c2.567 0 4.577 0.5 6.03 1.5 1.447 1 2.47 2.383 3.07 4.15 0.6 1.767 0.9 3.8 0.9 6.1v0 17.75c0 2.3-0.283 4.35-0.85 6.15-0.567 1.8-1.573 3.223-3.02 4.27-1.453 1.053-3.497 1.58-6.13 1.58zM86.45-1.7v0c1.933 0 3.427-0.383 4.48-1.15 1.047-0.767 1.77-1.843 2.17-3.23 0.4-1.38 0.6-2.987 0.6-4.82v0-18.7c0-1.833-0.2-3.433-0.6-4.8-0.4-1.367-1.117-2.427-2.15-3.18-1.033-0.747-2.533-1.12-4.5-1.12v0c-1.933 0-3.423 0.373-4.47 1.12-1.053 0.753-1.78 1.813-2.18 3.18-0.4 1.367-0.6 2.967-0.6 4.8v0 18.7c0 1.833 0.2 3.44 0.6 4.82 0.4 1.387 1.127 2.463 2.18 3.23 1.047 0.767 2.537 1.15 4.47 1.15zM105.8 0h-2.7v-40.5h9.5c2.433 0 4.333 0.457 5.7 1.37 1.367 0.92 2.327 2.163 2.88 3.73 0.547 1.567 0.82 3.35 0.82 5.35v0c0 1.8-0.273 3.517-0.82 5.15-0.553 1.633-1.513 2.967-2.88 4-1.367 1.033-3.25 1.55-5.65 1.55v0h-6.85zM105.8-38.4v16.95h6.25c1.633 0 2.977-0.283 4.03-0.85 1.047-0.567 1.83-1.477 2.35-2.73 0.513-1.247 0.77-2.92 0.77-5.02v0c0-2.167-0.233-3.86-0.7-5.08-0.467-1.213-1.217-2.063-2.25-2.55-1.033-0.48-2.417-0.72-4.15-0.72v0zM136.5 0.55v0c-2.633 0-4.673-0.527-6.12-1.58-1.453-1.047-2.463-2.48-3.03-4.3-0.567-1.813-0.85-3.87-0.85-6.17v0-17.7c0-2.3 0.3-4.333 0.9-6.1 0.6-1.767 1.627-3.15 3.08-4.15 1.447-1 3.453-1.5 6.02-1.5v0c2.567 0 4.577 0.5 6.03 1.5 1.447 1 2.47 2.383 3.07 4.15 0.6 1.767 0.9 3.8 0.9 6.1v0 17.75c0 2.3-0.283 4.35-0.85 6.15-0.567 1.8-1.573 3.223-3.02 4.27-1.453 1.053-3.497 1.58-6.13 1.58zM136.5-1.7v0c1.933 0 3.427-0.383 4.48-1.15 1.047-0.767 1.77-1.843 2.17-3.23 0.4-1.38 0.6-2.987 0.6-4.82v0-18.7c0-1.833-0.2-3.433-0.6-4.8-0.4-1.367-1.117-2.427-2.15-3.18-1.033-0.747-2.533-1.12-4.5-1.12v0c-1.933 0-3.423 0.373-4.47 1.12-1.053 0.753-1.78 1.813-2.18 3.18-0.4 1.367-0.6 2.967-0.6 4.8v0 18.7c0 1.833 0.2 3.44 0.6 4.82 0.4 1.387 1.127 2.463 2.18 3.23 1.047 0.767 2.537 1.15 4.47 1.15zM168.1 0h-14.95v-40.5h2.7v38.35h12.25zM179.9 0.5v0c-2.133 0-3.89-0.433-5.27-1.3-1.387-0.867-2.437-2.083-3.15-3.65-0.72-1.567-1.163-3.417-1.33-5.55v0l2.35-0.75c0.233 1.767 0.593 3.333 1.08 4.7 0.48 1.367 1.22 2.423 2.22 3.17 1 0.753 2.383 1.13 4.15 1.13v0c2 0 3.577-0.5 4.73-1.5 1.147-1 1.72-2.667 1.72-5v0c0-1.767-0.457-3.36-1.37-4.78-0.92-1.413-2.213-2.937-3.88-4.57v0l-7.4-7.35c-1.233-1.267-2.133-2.533-2.7-3.8-0.567-1.267-0.85-2.567-0.85-3.9v0c0-2.667 0.827-4.717 2.48-6.15 1.647-1.433 3.787-2.15 6.42-2.15v0c1.367 0 2.6 0.173 3.7 0.52 1.1 0.353 2.06 0.92 2.88 1.7 0.813 0.787 1.453 1.83 1.92 3.13 0.467 1.3 0.767 2.9 0.9 4.8v0l-2.3 0.55c-0.133-1.9-0.45-3.483-0.95-4.75-0.5-1.267-1.233-2.21-2.2-2.83-0.967-0.613-2.267-0.92-3.9-0.92v0c-1.833 0-3.367 0.467-4.6 1.4-1.233 0.933-1.85 2.433-1.85 4.5v0c0 1.033 0.21 2.033 0.63 3 0.413 0.967 1.187 2.017 2.32 3.15v0l7.3 7.2c1.633 1.6 3.043 3.307 4.23 5.12 1.18 1.82 1.77 3.813 1.77 5.98v0c0 2.033-0.383 3.707-1.15 5.02-0.767 1.32-1.833 2.297-3.2 2.93-1.367 0.633-2.933 0.95-4.7 0.95zM197.1 0h-2.75v-40.5h2.75v22.75l11.75-22.75h2.7l-8.55 17.15 10.6 23.35h-2.7l-9.55-21-4.25 7.75zM217.95 0h-2.7l8.5-40.5h3.15l8.55 40.5h-2.75l-2.1-11.2h-10.5zM225.35-37.2l-4.85 24h9.75z" data-fill-palette-color="primary" fill="#60935d" opacity="1"></path><path d="M11.1 44.5h-2.35l-7.05-40.5h2.4l5.95 35.15 6.5-34.25h2.6l6.7 34.25 5.4-35.15h2.35l-6.55 40.5h-2.3l-6.9-35.45zM47.15 45v0c-2.133 0-3.89-0.433-5.27-1.3-1.387-0.867-2.437-2.083-3.15-3.65-0.72-1.567-1.163-3.417-1.33-5.55v0l2.35-0.75c0.233 1.767 0.593 3.333 1.08 4.7 0.48 1.367 1.22 2.423 2.22 3.17 1 0.753 2.383 1.13 4.15 1.13v0c2 0 3.577-0.5 4.73-1.5 1.147-1 1.72-2.667 1.72-5v0c0-1.767-0.457-3.36-1.37-4.78-0.92-1.413-2.213-2.937-3.88-4.57v0l-7.4-7.35c-1.233-1.267-2.133-2.533-2.7-3.8-0.567-1.267-0.85-2.567-0.85-3.9v0c0-2.667 0.827-4.717 2.48-6.15 1.647-1.433 3.787-2.15 6.42-2.15v0c1.367 0 2.6 0.173 3.7 0.52 1.1 0.353 2.06 0.92 2.88 1.7 0.813 0.787 1.453 1.83 1.92 3.13 0.467 1.3 0.767 2.9 0.9 4.8v0l-2.3 0.55c-0.133-1.9-0.45-3.483-0.95-4.75-0.5-1.267-1.233-2.21-2.2-2.83-0.967-0.613-2.267-0.92-3.9-0.92v0c-1.833 0-3.367 0.467-4.6 1.4-1.233 0.933-1.85 2.433-1.85 4.5v0c0 1.033 0.21 2.033 0.63 3 0.413 0.967 1.187 2.017 2.32 3.15v0l7.3 7.2c1.633 1.6 3.043 3.307 4.23 5.12 1.18 1.82 1.77 3.813 1.77 5.98v0c0 2.033-0.383 3.707-1.15 5.02-0.767 1.32-1.833 2.297-3.2 2.93-1.367 0.633-2.933 0.95-4.7 0.95zM70.65 45.05v0c-2.667 0-4.707-0.55-6.12-1.65-1.42-1.1-2.397-2.577-2.93-4.43-0.533-1.847-0.8-3.887-0.8-6.12v0-17.2c0-2.333 0.283-4.41 0.85-6.23 0.567-1.813 1.567-3.247 3-4.3 1.433-1.047 3.433-1.57 6-1.57v0c2.367 0 4.217 0.467 5.55 1.4 1.333 0.933 2.283 2.257 2.85 3.97 0.567 1.72 0.85 3.73 0.85 6.03v0 2.05h-2.6v-2.05c0-1.933-0.183-3.577-0.55-4.93-0.367-1.347-1.033-2.387-2-3.12-0.967-0.733-2.333-1.1-4.1-1.1v0c-1.933 0-3.417 0.4-4.45 1.2-1.033 0.8-1.733 1.917-2.1 3.35-0.367 1.433-0.55 3.1-0.55 5v0 17.9c0 2 0.2 3.707 0.6 5.12 0.4 1.42 1.117 2.513 2.15 3.28 1.033 0.767 2.483 1.15 4.35 1.15v0c1.8 0 3.183-0.383 4.15-1.15 0.967-0.767 1.627-1.843 1.98-3.23 0.347-1.38 0.52-2.987 0.52-4.82v0-2.45h2.6v2c0 2.3-0.267 4.35-0.8 6.15-0.533 1.8-1.467 3.207-2.8 4.22-1.333 1.02-3.217 1.53-5.65 1.53zM88.8 44.5h-2.75v-40.5h2.75v18.25h14.2v-18.25h2.7v40.5h-2.7v-20.15h-14.2zM122.35 45.05v0c-2.633 0-4.673-0.527-6.12-1.58-1.453-1.047-2.463-2.48-3.03-4.3-0.567-1.813-0.85-3.87-0.85-6.17v0-17.7c0-2.3 0.3-4.333 0.9-6.1 0.6-1.767 1.627-3.15 3.08-4.15 1.447-1 3.453-1.5 6.02-1.5v0c2.567 0 4.577 0.5 6.03 1.5 1.447 1 2.47 2.383 3.07 4.15 0.6 1.767 0.9 3.8 0.9 6.1v0 17.75c0 2.3-0.283 4.35-0.85 6.15-0.567 1.8-1.573 3.223-3.02 4.27-1.453 1.053-3.497 1.58-6.13 1.58zM122.35 42.8v0c1.933 0 3.427-0.383 4.48-1.15 1.047-0.767 1.77-1.843 2.17-3.23 0.4-1.38 0.6-2.987 0.6-4.82v0-18.7c0-1.833-0.2-3.433-0.6-4.8-0.4-1.367-1.117-2.427-2.15-3.18-1.033-0.747-2.533-1.12-4.5-1.12v0c-1.933 0-3.423 0.373-4.47 1.12-1.053 0.753-1.78 1.813-2.18 3.18-0.4 1.367-0.6 2.967-0.6 4.8v0 18.7c0 1.833 0.2 3.44 0.6 4.82 0.4 1.387 1.127 2.463 2.18 3.23 1.047 0.767 2.537 1.15 4.47 1.15zM148.1 44.5h-9.1v-40.5h8.85c2.7 0 4.8 0.517 6.3 1.55 1.5 1.033 2.55 2.433 3.15 4.2 0.6 1.767 0.9 3.733 0.9 5.9v0 16.8c0 2.3-0.3 4.357-0.9 6.17-0.6 1.82-1.623 3.253-3.07 4.3-1.453 1.053-3.497 1.58-6.13 1.58zM141.7 6.2v36.15h6.25c2.2 0 3.833-0.467 4.9-1.4 1.067-0.933 1.767-2.177 2.1-3.73 0.333-1.547 0.5-3.237 0.5-5.07v0-16.3c0-1.967-0.2-3.673-0.6-5.12-0.4-1.453-1.15-2.573-2.25-3.36-1.1-0.78-2.683-1.17-4.75-1.17v0zM167.25 44.5h-2.4v-40.5h2.15l13.75 34.2v-34.2h2.4v40.5h-2.15l-13.75-34.25zM193.35 44.5h-2.7v-40.5h2.7zM201.45 44.5h-2.7l8.5-40.5h3.15l8.55 40.5h-2.75l-2.1-11.2h-10.5zM208.85 7.3l-4.85 24h9.75z" data-fill-palette-color="primary" fill="#60935d" opacity="1"></path></g></svg></g></svg></g></svg></g></svg></g><g transform="matrix(1,0,0,1,0,0.37899741602066683)"><svg viewBox="0 0 223.4796139773934 151.59896640826872" height="151.59896640826872" width="223.4796139773934"><g><svg xmlns="http://www.w3.org/2000/svg" xmlns:xlink="http://www.w3.org/1999/xlink" version="1.1" x="0" y="0" viewBox="16.355558395385742 25.600000381469727 57.34443664550781 38.900001525878906" enable-background="new 0 0 90 90" xml:space="preserve" height="151.59896640826872" width="223.4796139773934" class="icon-icon-0" data-fill-palette-color="accent" id="icon-0"><g fill="#60935d" data-fill-palette-color="accent"><path fill="#60935d" d="M34.2 45.4c3.2 0 5.8-2.6 5.8-5.8s-2.6-5.8-5.8-5.8-5.8 2.6-5.8 5.8S31 45.4 34.2 45.4zM34.2 34.8c2.7 0 4.8 2.2 4.8 4.8s-2.2 4.8-4.8 4.8-4.8-2.2-4.8-4.8S31.6 34.8 34.2 34.8z" data-fill-palette-color="accent"></path><rect x="40.4" y="61.2" fill="#60935d" width="3.1" height="1" data-fill-palette-color="accent"></rect><rect x="36" y="59.8" fill="#60935d" width="2.5" height="1" data-fill-palette-color="accent"></rect><rect x="43.3" y="58.6" fill="#60935d" width="2.5" height="1" data-fill-palette-color="accent"></rect><path fill="#60935d" d="M51 40.2c-0.4-0.4-0.8-0.5-1.3-0.5-0.5 0-1 0.2-1.3 0.6l-15.6 18h-2l-4.1-4.1c-0.6-0.6-1.5-0.6-2.1 0l-7.8 7.8c-0.4 0.4-0.6 1-0.3 1.6 0.2 0.6 0.8 0.9 1.4 0.9h15.5 6.4 4.8 26.4c0.7 0 1.4-0.4 1.7-1.1 0.3-0.7 0.1-1.4-0.4-2L51 40.2zM49.1 40.9c0.1-0.2 0.4-0.3 0.6-0.3 0.2 0 0.4 0.1 0.6 0.2l1.3 1.3c-3.3 1.7-5.1 4.7-6.9 7.7-2.4 4.1-4.6 7.9-10.6 8.4L49.1 40.9zM17.8 63.5c-0.3 0-0.4-0.2-0.4-0.3s-0.1-0.3 0.1-0.5l7.8-7.8c0.1-0.1 0.2-0.1 0.3-0.1 0.1 0 0.2 0.1 0.3 0.1l7.8 7.8c0.2 0.2 0.1 0.5 0.1 0.5s-0.1 0.3-0.4 0.3H17.8zM39.7 63.5h-5c0-0.1 0-0.1 0-0.2 0-0.1 0-0.1 0-0.2 0-0.1 0-0.2 0-0.2 0-0.1 0-0.1 0-0.2 0-0.1-0.1-0.2-0.1-0.3 0 0 0-0.1-0.1-0.1-0.1-0.1-0.2-0.2-0.3-0.3l-2.7-2.7h1.3c7.5 0 10.1-4.5 12.6-8.9 1.8-3.1 3.5-6 6.7-7.5l3.9 3.9c-3.8 1.6-4.9 5.6-5.8 9.1-1.1 3.9-2 7.3-5.9 7.6H39.7zM71.7 63c-0.1 0.3-0.4 0.5-0.7 0.5H47.6c2.2-1.5 3-4.4 3.8-7.3 1-3.6 2-7.3 5.7-8.6l14.5 14.5C71.7 62.3 71.8 62.7 71.7 63z" data-fill-palette-color="accent"></path><path fill="#60935d" d="M51 37.2h11.2c2.2 0 4-1.8 4-4 0-2.2-1.8-4-4-4-0.3 0-0.6 0-1 0.1-0.9-2.2-3-3.7-5.4-3.7-2.3 0-4.5 1.4-5.3 3.6-2 0.3-3.5 2-3.5 4C47 35.3 48.8 37.2 51 37.2zM50.9 30.1l0.3 0 0.1-0.3c0.7-1.9 2.5-3.2 4.5-3.2 2.1 0 4 1.4 4.6 3.4l0.2 0.5 0.5-0.2c2.1-0.8 4.1 0.8 4.1 2.8 0 1.7-1.4 3-3 3H51c-1.7 0-3-1.4-3-3C48 31.5 49.3 30.2 50.9 30.1z" data-fill-palette-color="accent"></path><path fill="#60935d" d="M70.6 43.4c-0.6-1.3-1.9-2.2-3.4-2.2-1.5 0-2.8 0.9-3.4 2.2-1.3 0.2-2.2 1.3-2.2 2.6 0 1.5 1.2 2.7 2.7 2.7H71c1.5 0 2.7-1.2 2.7-2.7C73.7 44.4 72.2 43.1 70.6 43.4zM71 47.7h-6.8c-0.9 0-1.7-0.7-1.7-1.7 0-0.9 0.7-1.6 1.6-1.7l0.3 0 0.1-0.3c0.4-1.1 1.4-1.8 2.6-1.8 1.2 0 2.3 0.8 2.6 2l0.2 0.5 0.5-0.2c1.1-0.4 2.3 0.4 2.3 1.6C72.7 46.9 72 47.7 71 47.7z" data-fill-palette-color="accent"></path></g></svg></g></svg></g></svg></g></svg><rect width="395.52" height="91.47653929199623" fill="none" stroke="none" visibility="hidden"></rect></g></svg></g></svg>